<svg width="128" height="110" viewBox="0 0 128 110" fill="none" xmlns="http://www.w3.org/2000/svg">
<g opacity="0.4">
<path d="M64 109.373C60.6668 109.373 57.3335 108.642 54.7953 107.175L5.95426 78.9782C3.41851 77.5141 2.021 75.5388 2.021 73.4154C2.021 71.2944 3.41604 69.3192 5.95426 67.855L54.7928 39.658C59.8693 36.7247 68.1283 36.7272 73.2048 39.658L122.043 67.855C124.579 69.3192 125.979 71.2944 125.979 73.4154C125.979 75.5363 124.584 77.5116 122.046 78.9758L73.2073 107.173C70.6691 108.642 67.3358 109.373 64 109.373ZM55.2249 106.435C60.0643 109.227 67.9382 109.227 72.7801 106.435L121.621 78.2375C123.88 76.9314 125.122 75.2203 125.122 73.4154C125.122 71.6105 123.878 69.8994 121.619 68.5957L72.7776 40.3987C67.9382 37.6037 60.0643 37.6062 55.2224 40.3987L6.38387 68.5957C4.12465 69.8994 2.88026 71.613 2.88026 73.4154C2.88026 75.2203 4.12465 76.9338 6.38387 78.24L55.2249 106.435Z" fill="#F6885C"/>
<path opacity="0.4" d="M127.5 62.5932V45.8676L124.438 44.1664C123.574 49.3886 117.426 52.828 112.288 53.544L77.2911 74.0103L62.0173 79.5262L13.2677 54.3687L14.396 53.7169C10.2282 51.7712 7.98381 47.3195 5.732 43.2578L2.45056 45.2158L0.5 45.7639V62.7735C0.5 64.9413 1.9296 67.1092 4.7888 68.761L53.6298 96.958C59.3482 100.259 68.6518 100.259 74.3702 96.958L123.209 68.761C126.021 67.1388 127.451 65.0129 127.495 62.8796C127.498 62.7834 127.495 62.6895 127.49 62.5932H127.5Z" fill="#F6885C"/>
<path d="M127.5 47.7268V36.6628L124.438 34.9616C123.574 40.1837 117.426 43.6257 112.288 44.3392L77.2911 64.8055L62.0173 70.319L13.2701 45.159L14.3985 44.5096C10.2307 42.564 7.98625 38.1097 5.73445 34.0505L2.45304 36.0061L0.502441 36.5542V47.9021C0.502441 50.07 1.93208 52.2378 4.79128 53.8896L53.6323 82.0866C59.3507 85.3878 68.6542 85.3878 74.3726 82.0866L123.211 53.8896C126.023 52.265 127.453 50.1391 127.498 48.0083C127.5 47.912 127.498 47.8182 127.493 47.7219L127.5 47.7268Z" fill="url(#paint0_linear)"/>
<path opacity="0.3" d="M112.29 44.3366L77.2936 64.8029L64 69.6028V84.5655C67.7555 84.5655 71.511 83.7408 74.3726 82.089L123.211 53.892C126.023 52.2673 127.453 50.1414 127.498 48.0106C127.5 47.9143 127.498 47.8205 127.493 47.7242L127.5 47.7267V36.6627L124.702 35.1072H124.411C123.456 40.2453 117.379 43.6305 112.29 44.3366Z" fill="#0F054C"/>
<path d="M14.3989 44.5093L60.6795 17.7888C62.5115 16.7321 65.4893 16.7321 67.3213 17.7888L112.795 44.0426L112.291 44.3389C117.429 43.6229 123.577 40.1834 124.441 34.9613L73.4076 6.5767L58.5585 2.65332L46.4674 9.75935L5.73486 34.0527C7.98667 38.1094 10.2311 42.5637 14.3989 44.5093Z" fill="url(#paint1_linear)"/>
<path opacity="0.3" d="M63.9997 4.08816L58.5553 2.64868L46.4642 9.75471L5.73169 34.0481C7.98597 38.1097 10.2304 42.5615 14.3957 44.5071L60.6763 17.7867C61.5923 17.2583 62.7948 16.9941 63.9972 16.9941V4.08816H63.9997Z" fill="#0F054C"/>
<path d="M53.6298 70.8474L4.78881 42.6504C-0.929602 39.3492 -0.929602 33.9765 4.78881 30.6729L53.6274 2.47588C59.3458 -0.825292 68.6493 -0.825292 74.3677 2.47588L123.209 30.6753C128.927 33.9765 128.927 39.3492 123.209 42.6504L74.3702 70.8474C68.6542 74.1486 59.3482 74.1486 53.6298 70.8474ZM67.3209 6.54493C65.4889 5.48816 62.5111 5.48816 60.6791 6.54493L11.8405 34.7419C10.0085 35.7987 10.0085 37.5196 11.8405 38.5764L60.6815 66.7734C62.5111 67.8302 65.4913 67.8302 67.3234 66.7734L116.162 38.5764C117.994 37.5196 117.994 35.7987 116.162 34.7419L67.3209 6.54493Z" fill="url(#paint2_linear)"/>
<path d="M116.16 34.7445L67.3187 6.54502C65.4866 5.48825 62.5089 5.48825 60.6768 6.54502L11.8383 34.742C10.6161 35.4482 10.2136 36.4457 10.6235 37.3494C10.8284 36.9 11.2284 36.4728 11.8383 36.1198L60.6768 7.92278C62.5089 6.86601 65.4866 6.86601 67.3187 7.92278L116.16 36.1222C116.77 36.4753 117.172 36.8975 117.374 37.3494C117.784 36.4481 117.384 35.4506 116.16 34.7445Z" fill="white"/>
<path d="M123.211 42.6483L74.3728 70.8453C68.6544 74.1464 59.3508 74.1464 53.6324 70.8453L4.79144 42.6483C2.23594 41.1717 0.82608 39.2829 0.554481 37.3496C0.218685 39.7422 1.63101 42.2014 4.79144 44.0285L53.6324 72.2255C59.3508 75.5266 68.6544 75.5266 74.3728 72.2255L123.211 44.0285C126.374 42.2038 127.784 39.7446 127.448 37.3521C127.177 39.2854 125.767 41.1742 123.211 42.6483Z" fill="white"/>
<path d="M55.0101 70.05L6.16913 41.8505C1.2112 38.9888 1.2112 34.3321 6.16913 31.468L55.0077 3.27101C59.9656 0.409338 68.0321 0.409338 72.99 3.27101L121.831 31.468C126.789 34.3297 126.789 38.9888 121.831 41.8505L72.9925 70.0475C68.0346 72.9116 59.9681 72.9116 55.0101 70.05ZM68.6988 5.74998C66.1087 4.25371 61.8915 4.25371 59.2989 5.74998L10.4604 33.947C7.87031 35.4432 7.87031 37.8777 10.4604 39.374L59.3014 67.5735C61.8915 69.0673 66.1087 69.0673 68.7012 67.5735L117.54 39.3765C120.13 37.8802 120.13 35.4457 117.54 33.9494L68.6988 5.74998Z" fill="url(#paint3_linear)"/>
<path opacity="0.4" d="M67.3212 6.54502C65.4892 5.48825 62.5115 5.48825 60.6794 6.54502L11.8408 34.742C10.0088 35.7988 10.0088 37.5197 11.8408 38.5765L60.6818 66.7735C62.5114 67.8302 65.4916 67.8302 67.3237 66.7735L116.162 38.5765C117.994 37.5197 117.994 35.7988 116.162 34.742L67.3212 6.54502Z" fill="#F6885C"/>
</g>
<defs>
<linearGradient id="paint0_linear" x1="14.8886" y1="43.8246" x2="116.462" y2="95.8127" gradientUnits="userSpaceOnUse">
<stop stop-color="#7B8703"/>
<stop offset="0.367708" stop-color="#FFCB07"/>
<stop offset="0.7375" stop-color="#FBB040"/>
</linearGradient>
<linearGradient id="paint1_linear" x1="19.1818" y1="10.7524" x2="109.042" y2="62.6334" gradientUnits="userSpaceOnUse">
<stop stop-color="#7B8703"/>
<stop offset="0.367708" stop-color="#FFCB07"/>
<stop offset="0.7375" stop-color="#FBB040"/>
</linearGradient>
<linearGradient id="paint2_linear" x1="14.8861" y1="14.188" x2="128.895" y2="54.3869" gradientUnits="userSpaceOnUse">
<stop stop-color="#7B8703"/>
<stop offset="0.367708" stop-color="#FFCB07"/>
<stop offset="0.7375" stop-color="#FBB040"/>
</linearGradient>
<linearGradient id="paint3_linear" x1="16.3952" y1="14.877" x2="126.903" y2="53.8423" gradientUnits="userSpaceOnUse">
<stop stop-color="#7B8703"/>
<stop offset="0.367708" stop-color="#FFCB07"/>
<stop offset="0.7375" stop-color="#FBB040"/>
</linearGradient>
</defs>
</svg>
