<svg width="15" height="18" viewBox="0 0 15 18" fill="none" xmlns="http://www.w3.org/2000/svg">
<path d="M2.9 7.49997H4.49V12.5C4.49 13.05 4.94 13.5 5.49 13.5H9.49C10.04 13.5 10.49 13.05 10.49 12.5V7.49997H12.08C12.97 7.49997 13.42 6.41997 12.79 5.78997L8.2 1.19997C7.81 0.809971 7.18 0.809971 6.79 1.19997L2.2 5.78997C1.57 6.41997 2.01 7.49997 2.9 7.49997ZM0.5 16.5C0.5 17.05 0.95 17.5 1.5 17.5H13.5C14.05 17.5 14.5 17.05 14.5 16.5C14.5 15.95 14.05 15.5 13.5 15.5H1.5C0.95 15.5 0.5 15.95 0.5 16.5Z" fill="white"/>
</svg>
